<?xml version="1.0" standalone="no"?>
<!DOCTYPE svg PUBLIC "-//W3C//DTD SVG 20010904//EN"
 "http://www.w3.org/TR/2001/REC-SVG-20010904/DTD/svg10.dtd">
<svg version="1.0" xmlns="http://www.w3.org/2000/svg"
 width="1280.000000pt" height="332.000000pt" viewBox="0 0 1280.000000 332.000000"
 preserveAspectRatio="xMidYMid meet">

<g transform="translate(0.000000,332.000000) scale(0.100000,-0.100000)"
fill="#000000" stroke="none">
<path d="M1530 3313 c-389 -38 -698 -166 -980 -408 -507 -434 -689 -1219 -431
-1859 216 -538 703 -924 1291 -1023 122 -20 932 -30 1147 -14 250 18 431 66
650 171 146 70 237 127 360 227 319 258 532 613 598 999 24 141 22 373 -5 528
-127 738 -749 1297 -1529 1376 -92 9 -1012 12 -1101 3z m395 -149 c317 -51
605 -201 834 -433 401 -407 540 -1004 360 -1546 -129 -388 -416 -714 -784
-890 -448 -215 -960 -200 -1396 41 -123 68 -202 127 -313 234 -187 180 -312
377 -391 614 -60 181 -70 247 -70 481 0 234 10 300 70 481 107 323 338 617
631 806 70 45 215 114 308 147 241 85 494 107 751 65z"/>
<path d="M1260 2527 c-339 -172 -540 -492 -540 -862 0 -361 206 -696 525 -855
l80 -40 3 451 c1 248 1 650 0 895 l-3 444 -65 -33z"/>
<path d="M2020 1665 l0 -895 25 10 c193 73 389 259 494 467 94 188 119 458 62
668 -74 269 -279 512 -523 619 l-58 26 0 -895z"/>
<path d="M10780 2881 c-42 -20 -90 -41 -108 -48 -41 -14 -41 -35 0 -54 18 -8
38 -25 45 -39 10 -19 13 -151 13 -552 0 -593 5 -558 -76 -558 -40 0 -44 -2
-44 -25 l0 -25 190 0 190 0 0 25 c0 23 -4 25 -44 25 -81 0 -76 -46 -76 655 0
343 -3 626 -7 628 -5 2 -42 -12 -83 -32z"/>
<path d="M11990 2881 c-42 -20 -90 -41 -108 -48 -41 -14 -41 -35 0 -54 60 -26
59 -15 54 -579 -3 -283 -8 -536 -11 -562 -6 -41 -5 -47 15 -53 14 -4 28 -1 41
10 18 17 23 16 100 -9 236 -78 437 6 539 227 82 175 51 370 -76 486 -118 108
-263 107 -413 -3 l-51 -38 0 326 c0 178 -3 327 -7 329 -5 2 -42 -12 -83 -32z
m345 -620 c54 -25 116 -90 151 -159 27 -53 29 -66 29 -167 0 -100 -3 -116 -28
-170 -32 -69 -67 -109 -117 -135 -109 -55 -224 -19 -271 85 -16 35 -19 68 -19
265 l0 225 48 31 c26 18 54 34 62 37 33 12 107 6 145 -12z"/>
<path d="M10012 2820 c-252 -46 -450 -211 -528 -440 -29 -85 -27 -280 4 -380
35 -112 79 -187 152 -260 77 -77 175 -132 287 -161 150 -38 370 -20 529 43
l58 23 18 110 c22 146 22 155 -2 155 -14 0 -22 -10 -30 -37 -26 -96 -108 -192
-194 -228 -157 -66 -347 -18 -485 123 -116 118 -173 266 -174 452 0 179 44
303 147 406 111 110 265 160 421 136 142 -22 238 -98 274 -216 15 -48 23 -62
41 -64 l22 -4 -7 124 c-4 68 -10 126 -14 130 -9 10 -153 56 -230 73 -83 20
-222 27 -289 15z"/>
<path d="M5967 2809 c-9 -5 -24 -23 -32 -39 -14 -26 -14 -34 -1 -64 27 -64 97
-77 140 -25 34 40 33 74 -3 110 -31 30 -71 37 -104 18z"/>
<path d="M4560 2776 c0 -24 3 -26 46 -26 64 0 100 -36 109 -111 9 -77 2 -930
-9 -952 -11 -23 -54 -45 -105 -53 -35 -6 -41 -10 -41 -30 l0 -24 274 0 c357 0
464 15 601 82 134 66 231 171 287 313 39 101 50 252 25 352 -55 214 -217 375
-447 444 -70 21 -98 23 -407 27 l-333 3 0 -25z m608 -51 c102 -24 171 -62 243
-134 114 -115 168 -271 156 -456 -21 -313 -204 -495 -497 -495 -85 0 -141 25
-163 73 -15 31 -17 88 -17 531 l0 496 108 0 c59 0 135 -7 170 -15z"/>
<path d="M5948 2343 c-56 -20 -98 -41 -98 -48 0 -7 16 -23 36 -35 19 -13 40
-34 45 -47 5 -13 9 -143 9 -288 0 -299 1 -295 -76 -295 -40 0 -44 -2 -44 -25
l0 -25 190 0 190 0 0 25 c0 23 -4 25 -44 25 -79 0 -76 -15 -76 391 0 336 -1
359 -17 358 -10 -1 -62 -17 -115 -36z"/>
<path d="M6455 2366 c-16 -7 -67 -25 -112 -41 -92 -31 -107 -53 -53 -75 17 -7
40 -24 50 -38 19 -23 20 -41 20 -291 0 -194 -3 -270 -12 -279 -7 -7 -31 -12
-55 -12 -39 0 -43 -2 -43 -25 l0 -25 185 0 185 0 0 24 c0 23 -5 25 -47 28 -73
5 -73 8 -70 313 l2 260 75 38 c69 35 81 38 144 35 64 -4 70 -6 102 -41 l34
-37 0 -273 c0 -199 -3 -276 -12 -285 -7 -7 -31 -12 -55 -12 -39 0 -43 -2 -43
-25 l0 -25 188 2 c179 3 187 4 187 23 0 17 -8 21 -45 23 -24 2 -50 8 -57 14
-10 8 -13 70 -13 257 0 271 -9 346 -46 404 -67 103 -228 102 -389 -3 -34 -22
-64 -40 -68 -40 -4 0 -7 27 -7 60 0 33 -3 60 -7 60 -5 -1 -21 -7 -38 -14z"/>
<path d="M7359 2357 c-99 -41 -165 -109 -211 -218 -19 -47 -22 -72 -23 -189 0
-127 2 -139 27 -193 42 -89 81 -132 152 -167 145 -72 315 -26 431 116 30 37
35 47 25 59 -11 13 -18 10 -53 -21 -93 -84 -213 -104 -303 -49 -90 56 -144
167 -144 297 l0 68 245 0 c280 0 269 -4 254 88 -28 178 -225 281 -400 209z
m197 -68 c48 -44 71 -133 40 -158 -9 -8 -64 -11 -174 -9 l-161 3 18 53 c34 98
98 145 193 139 44 -2 64 -9 84 -28z"/>
<path d="M7943 2328 c-57 -27 -103 -55 -103 -63 0 -7 13 -17 28 -23 63 -22 62
-17 62 -316 0 -198 -3 -275 -12 -284 -7 -7 -36 -12 -65 -12 -50 0 -53 -1 -53
-25 l0 -25 230 0 230 0 0 25 c0 25 -1 25 -78 25 -47 0 -83 5 -90 12 -9 9 -12
81 -12 261 l0 249 38 39 c51 50 84 58 136 31 65 -35 107 -28 131 19 21 40 18
74 -9 106 -21 24 -31 28 -78 28 -68 0 -121 -34 -182 -114 l-41 -55 -3 87 c-2
60 -6 87 -15 86 -7 0 -58 -23 -114 -51z"/>
<path d="M8612 2362 c-98 -35 -155 -115 -154 -214 1 -67 26 -123 73 -162 18
-15 80 -52 139 -81 127 -64 160 -97 160 -160 0 -56 -14 -87 -48 -107 -46 -27
-88 -31 -146 -14 -65 19 -116 71 -143 145 -13 36 -23 51 -36 51 -15 0 -18 -6
-13 -27 2 -16 8 -62 11 -105 l7 -76 54 -22 c205 -83 434 3 459 173 17 115 -38
186 -211 268 -134 64 -178 100 -188 154 -15 78 45 135 141 135 82 0 139 -42
168 -126 9 -26 20 -40 34 -42 21 -3 21 -1 15 85 -4 48 -9 91 -13 94 -20 19
-107 42 -176 45 -61 4 -92 0 -133 -14z"/>
<path d="M11012 2343 c-33 -6 -24 -35 14 -45 58 -15 59 -15 64 -329 l5 -287
30 -43 c41 -58 89 -81 170 -80 79 0 145 27 233 93 l62 47 0 -69 c0 -80 -2 -79
89 -56 31 8 82 20 114 26 46 9 57 15 57 31 0 16 -7 19 -55 19 l-55 0 0 338 c0
185 -4 343 -9 351 -7 11 -28 12 -102 7 -153 -11 -179 -16 -179 -35 0 -12 14
-21 49 -30 96 -24 91 -8 91 -285 l0 -244 -52 -36 c-54 -36 -125 -66 -159 -66
-46 0 -100 33 -122 74 -21 39 -22 54 -25 334 l-3 292 -97 -1 c-53 -1 -107 -4
-120 -6z"/>
<path d="M5687 1233 c-3 -5 -8 -46 -12 -91 -7 -77 -6 -84 11 -80 10 1 21 16
26 33 12 47 32 55 135 55 l93 0 0 -259 c0 -143 -4 -271 -9 -284 -7 -19 -20
-27 -50 -32 -29 -5 -41 -12 -41 -23 0 -15 17 -17 162 -15 136 1 164 4 166 16
2 11 -9 17 -38 22 -24 4 -44 14 -50 25 -6 11 -10 129 -10 284 l0 266 83 0 c97
0 127 -14 127 -61 0 -35 26 -40 39 -6 16 42 18 146 4 151 -8 3 -16 -1 -19 -9
-9 -23 -565 -22 -584 0 -14 16 -26 19 -33 8z"/>
<path d="M8989 1238 c-1 -2 -7 -41 -13 -87 -10 -66 -10 -84 0 -88 20 -7 34 6
34 32 0 41 34 55 137 55 l93 0 -1 -257 c-1 -142 -4 -269 -8 -283 -5 -19 -16
-27 -49 -34 -28 -6 -42 -14 -42 -25 0 -14 19 -16 162 -14 136 1 164 4 166 16
2 11 -9 17 -38 22 -24 4 -44 14 -50 25 -6 11 -10 129 -10 284 l0 266 85 0 c95
0 125 -16 125 -66 0 -19 5 -25 17 -22 25 5 47 164 24 173 -8 3 -19 -1 -23 -10
-13 -22 -573 -23 -582 0 -4 13 -23 21 -27 13z"/>
<path d="M8693 1207 c-24 -12 -43 -27 -43 -33 0 -24 -192 -560 -206 -575 -9
-10 -26 -20 -40 -23 -14 -4 -24 -14 -24 -24 0 -15 12 -17 110 -17 97 0 110 2
110 17 0 12 -11 19 -35 24 -19 3 -37 10 -40 14 -3 4 7 47 22 94 l26 86 103 0
102 0 26 -78 c33 -99 33 -109 -4 -117 -19 -4 -30 -13 -30 -23 0 -15 16 -17
140 -17 121 0 140 2 140 16 0 8 -15 22 -32 30 -32 14 -36 24 -144 329 -70 199
-116 316 -125 317 -8 1 -33 -8 -56 -20z m57 -364 c0 -9 -21 -13 -75 -13 -41 0
-75 3 -75 8 0 4 16 60 37 126 l37 118 38 -113 c21 -62 38 -119 38 -126z"/>
<path d="M11793 1207 c-24 -11 -43 -25 -43 -29 0 -18 -189 -550 -204 -572 -8
-13 -29 -27 -46 -31 -20 -4 -30 -12 -28 -22 2 -12 24 -15 116 -17 99 -1 112 1
112 16 0 12 -11 19 -35 24 -19 3 -38 10 -41 15 -2 5 7 47 21 94 l26 85 104 0
103 0 26 -78 c34 -102 34 -110 -10 -118 -24 -4 -34 -11 -32 -22 4 -22 281 -21
286 1 2 9 -9 19 -27 25 -16 6 -34 19 -39 29 -6 10 -55 146 -110 303 -121 344
-112 320 -126 319 -6 0 -30 -10 -53 -22z m57 -369 c0 -5 -36 -8 -79 -8 l-79 0
41 126 42 126 37 -119 c21 -65 38 -121 38 -125z"/>
<path d="M12651 1216 c-89 -49 -53 -186 49 -186 33 0 48 6 71 29 80 81 -20
212 -120 157z m83 -17 c13 -7 30 -25 37 -41 16 -39 -9 -94 -46 -104 -42 -10
-74 4 -92 41 -13 28 -14 39 -4 63 19 45 60 61 105 41z"/>
<path d="M12658 1125 c-3 -50 -1 -55 18 -55 18 0 20 5 16 27 l-5 28 26 -30
c14 -17 29 -27 33 -23 4 5 -1 17 -10 27 -14 16 -15 23 -6 40 15 29 5 41 -35
41 l-33 0 -4 -55z m52 25 c0 -11 -4 -20 -10 -20 -5 0 -10 9 -10 20 0 11 5 20
10 20 6 0 10 -9 10 -20z"/>
<path d="M10223 1206 c-59 -19 -104 -49 -153 -102 -68 -74 -85 -122 -85 -239
0 -120 21 -172 97 -247 69 -68 138 -92 258 -93 82 0 103 4 151 27 79 36 133
89 171 166 31 62 33 74 33 167 0 89 -3 106 -27 151 -33 63 -94 119 -166 152
-68 31 -211 40 -279 18z m183 -55 c52 -24 109 -91 131 -155 24 -69 23 -212 -1
-284 -47 -139 -204 -184 -312 -90 -99 87 -133 296 -70 433 45 100 153 141 252
96z"/>
<path d="M4550 1189 c0 -13 7 -19 23 -19 13 0 31 -6 40 -12 16 -12 17 -39 15
-293 l-3 -280 -37 -9 c-24 -6 -38 -15 -38 -25 0 -14 20 -16 150 -16 130 0 150
2 150 16 0 10 -14 19 -37 25 l-38 9 -3 280 c-2 254 -1 281 15 293 9 6 27 12
40 12 16 0 23 6 23 19 0 17 -10 18 -150 18 -140 0 -150 -1 -150 -18z"/>
<path d="M4880 1190 c0 -11 10 -20 28 -25 62 -15 62 -13 62 -289 0 -277 -2
-288 -60 -301 -19 -4 -30 -13 -30 -23 0 -15 15 -17 130 -17 115 0 130 2 130
17 0 11 -12 18 -39 23 -63 10 -66 18 -69 209 -2 94 -2 193 0 221 l3 49 239
-267 c167 -186 246 -267 260 -267 21 0 21 3 18 262 -2 145 -1 282 3 306 7 50
34 82 70 82 18 0 25 5 25 18 0 17 -10 19 -130 19 -121 1 -130 -1 -130 -18 0
-13 7 -19 24 -19 14 0 37 -10 51 -22 l26 -23 -3 -188 -3 -188 -203 228 -202
229 -100 1 c-90 1 -100 -1 -100 -17z"/>
<path d="M6360 1188 c0 -12 7 -18 24 -18 54 0 56 -8 56 -298 0 -147 -4 -272
-8 -278 -4 -6 -22 -15 -39 -19 -21 -4 -33 -13 -33 -23 0 -16 23 -17 257 -16
l257 2 16 76 c9 42 14 78 12 81 -14 14 -31 1 -48 -36 -24 -54 -59 -69 -167
-69 -115 0 -117 3 -117 153 l0 117 66 0 c83 0 100 -10 109 -59 5 -32 10 -38
26 -34 17 5 19 15 19 119 0 105 -1 114 -19 114 -12 0 -21 -10 -26 -27 -11 -47
-22 -53 -101 -53 l-74 0 0 115 0 115 95 0 c108 0 129 -11 140 -73 6 -28 10
-34 26 -30 18 5 20 13 17 82 l-3 76 -242 1 c-230 1 -243 0 -243 -18z"/>
<path d="M6940 1189 c0 -13 7 -19 23 -19 13 0 31 -6 40 -12 16 -12 17 -39 15
-293 l-3 -280 -37 -9 c-24 -6 -38 -15 -38 -25 0 -14 21 -16 155 -16 137 0 155
2 155 16 0 11 -12 19 -37 24 -21 4 -41 12 -45 18 -4 7 -8 65 -8 130 l0 117 25
0 c19 0 31 -9 43 -31 9 -17 52 -84 95 -150 l77 -119 78 0 c42 0 88 -3 100 -7
21 -5 23 -3 20 18 -2 16 -12 25 -35 31 -26 7 -47 31 -123 144 -51 74 -90 136
-88 138 95 59 122 97 122 171 0 70 -27 114 -89 145 -48 24 -58 25 -247 26
-188 2 -198 1 -198 -17z m355 -59 c52 -48 57 -153 11 -207 -19 -22 -33 -27
-84 -31 l-62 -4 0 137 0 137 55 -4 c40 -3 62 -11 80 -28z"/>
<path d="M7620 1189 c0 -12 7 -19 19 -19 10 0 30 -9 45 -21 l26 -20 0 -253 c0
-277 -2 -288 -60 -301 -19 -4 -30 -13 -30 -23 0 -15 15 -17 130 -17 115 0 130
2 130 17 0 11 -12 18 -39 23 -22 4 -46 14 -53 22 -10 12 -14 74 -16 236 -3
197 -2 220 11 208 9 -7 118 -127 243 -267 159 -177 234 -254 248 -254 21 0 21
2 18 262 -2 145 -1 282 3 306 7 50 34 82 70 82 18 0 25 5 25 18 0 17 -10 19
-130 19 -121 1 -130 -1 -130 -18 0 -13 7 -19 24 -19 14 0 37 -10 51 -22 l26
-23 -3 -188 -3 -188 -203 229 -203 229 -100 0 c-90 1 -99 -1 -99 -18z"/>
<path d="M9660 1188 c0 -12 7 -18 23 -18 13 0 31 -6 40 -12 16 -12 17 -39 15
-293 l-3 -280 -37 -9 c-24 -6 -38 -15 -38 -25 0 -14 20 -16 150 -16 130 0 150
2 150 16 0 10 -14 19 -37 25 l-38 9 -3 280 c-2 254 -1 281 15 293 9 6 27 12
40 12 16 0 23 6 23 19 0 17 -10 18 -150 18 -139 0 -150 -2 -150 -19z"/>
<path d="M10716 1202 c-15 -15 -3 -30 29 -36 63 -12 65 -23 65 -291 0 -271 -3
-284 -63 -298 -26 -6 -37 -14 -35 -24 4 -23 262 -23 266 -1 2 10 -10 18 -40
24 -66 14 -69 27 -66 270 l3 207 238 -267 c173 -192 245 -266 260 -266 l22 0
0 306 0 306 24 19 c13 10 34 19 47 19 17 0 24 6 24 18 0 17 -10 19 -130 19
-121 1 -130 -1 -130 -18 0 -14 7 -19 25 -19 14 0 37 -11 50 -25 25 -24 25 -26
25 -212 l0 -188 -29 30 c-16 17 -109 120 -206 230 l-177 200 -98 2 c-54 1
-101 -1 -104 -5z"/>
<path d="M12170 1189 c0 -13 7 -19 23 -19 13 0 31 -6 40 -12 16 -12 17 -39 15
-293 l-3 -280 -37 -9 c-24 -6 -38 -15 -38 -25 0 -14 30 -16 255 -16 248 0 256
1 260 20 35 151 34 146 17 152 -9 4 -17 2 -19 -3 -13 -40 -43 -81 -69 -96 -41
-24 -141 -34 -188 -18 l-36 12 0 272 c0 198 3 275 12 284 7 7 27 12 46 12 26
0 33 4 30 18 -3 15 -19 17 -156 18 -143 2 -152 0 -152 -17z"/>
</g>
</svg>
